<svg id="check-icon" xmlns="http://www.w3.org/2000/svg" width="11.58" height="13.343" viewBox="0 0 11.58 13.343">
  <g id="Layer_1" data-name="Layer 1" transform="translate(0 0.003)">
    <path id="Trazado_12" data-name="Trazado 12" d="M4.47,13.34c-.54-1-1-1.71-1.25-2.17l-.47-.73L2.4,9.91a15.65,15.65,0,0,0-2.4-3,2.16,2.16,0,0,1,1.33-.59,1.9,1.9,0,0,1,1.34.56A10,10,0,0,1,4.16,9,36,36,0,0,1,6.75,2.73,7.67,7.67,0,0,1,8.3.56,2.8,2.8,0,0,1,10.11,0a7.47,7.47,0,0,1,1.47.18A14.28,14.28,0,0,0,8,4.51a64.619,64.619,0,0,0-3.53,8.83Z" fill="#a8895b"/>
  </g>
</svg>
