<svg xmlns="http://www.w3.org/2000/svg" width="34.259" height="34.251" viewBox="0 0 34.259 34.251">
  <path id="instagram-brands_3_" data-name="instagram-brands (3)" d="M17.058,40.169A8.782,8.782,0,1,0,25.84,48.95,8.768,8.768,0,0,0,17.058,40.169Zm0,14.491a5.709,5.709,0,1,1,5.709-5.709,5.72,5.72,0,0,1-5.709,5.709ZM28.247,39.81A2.048,2.048,0,1,1,26.2,37.762,2.044,2.044,0,0,1,28.247,39.81Zm5.816,2.079c-.13-2.744-.757-5.174-2.767-7.177s-4.433-2.629-7.177-2.767c-2.828-.16-11.3-.16-14.131,0A10.188,10.188,0,0,0,2.812,34.7C.8,36.707.183,39.137.045,41.881c-.16,2.828-.16,11.3,0,14.131.13,2.744.757,5.174,2.767,7.177a10.216,10.216,0,0,0,7.177,2.767c2.828.16,11.3.16,14.131,0,2.744-.13,5.174-.757,7.177-2.767s2.629-4.433,2.767-7.177C34.224,53.185,34.224,44.716,34.063,41.889ZM30.41,59.047A5.78,5.78,0,0,1,27.154,62.3c-2.255.894-7.6.688-10.1.688s-7.849.2-10.1-.688a5.78,5.78,0,0,1-3.256-3.256c-.894-2.255-.688-7.6-.688-10.1s-.2-7.849.688-10.1A5.78,5.78,0,0,1,6.962,35.6c2.255-.894,7.6-.688,10.1-.688s7.849-.2,10.1.688a5.78,5.78,0,0,1,3.256,3.256c.894,2.255.688,7.6.688,10.1S31.3,56.8,30.41,59.047Z" transform="translate(0.075 -31.825)" fill="#a4a89d"/>
</svg>
