<svg xmlns="http://www.w3.org/2000/svg" width="37.533" height="30.484" viewBox="0 0 37.533 30.484">
  <path id="twitter-brands_3_" data-name="twitter-brands (3)" d="M33.675,55.679c.024.333.024.667.024,1,0,10.169-7.74,21.887-21.887,21.887A21.738,21.738,0,0,1,0,75.113a15.913,15.913,0,0,0,1.858.1,15.406,15.406,0,0,0,9.55-3.287,7.706,7.706,0,0,1-7.192-5.335,9.7,9.7,0,0,0,1.453.119,8.135,8.135,0,0,0,2.024-.262,7.693,7.693,0,0,1-6.168-7.55v-.1A7.747,7.747,0,0,0,5,59.775,7.7,7.7,0,0,1,2.62,49.487a21.865,21.865,0,0,0,15.861,8.05,8.684,8.684,0,0,1-.191-1.762A7.7,7.7,0,0,1,31.6,50.511a15.145,15.145,0,0,0,4.882-1.858A7.672,7.672,0,0,1,33.1,52.893a15.421,15.421,0,0,0,4.43-1.191,16.536,16.536,0,0,1-3.858,3.977Z" transform="translate(0 -48.082)" fill="#a4a89d"/>
</svg>
